<svg width="183" height="75" viewBox="0 0 183 75" fill="none" xmlns="http://www.w3.org/2000/svg">
<path d="M16.6942 48.7529C16.6056 48.9744 16.3398 48.9744 16.2512 48.7529L8.36635 22.1748C8.27776 21.9976 8.18916 21.9533 8.05627 21.9533H0.880176C0.747285 21.9533 0.658691 22.0419 0.658691 22.1748V52.9168C0.658691 53.0497 0.747285 53.1383 0.880176 53.1383H4.64541C4.7783 53.1383 4.8669 53.0497 4.8669 52.9168V26.383C4.8669 26.1172 5.22127 26.0729 5.30987 26.3387L13.1061 52.9168C13.1504 53.0497 13.3276 53.1383 13.4605 53.1383H19.4849C19.6178 53.1383 19.795 53.0497 19.8393 52.9168L27.6355 26.3387C27.6798 26.1172 28.0785 26.0729 28.0785 26.383V52.9168C28.0785 53.0497 28.1671 53.1383 28.3 53.1383H32.0652C32.1981 53.1383 32.2867 53.0497 32.2867 52.9168V22.1748C32.2867 22.0419 32.1981 21.9533 32.0652 21.9533H24.8891C24.7562 21.9533 24.6676 21.9976 24.579 22.1748L16.6942 48.7529Z" fill="black"/>
<path d="M57.4587 43.4373C57.5916 43.4373 57.6359 43.3487 57.6802 43.2158C57.7688 42.8614 57.9017 42.3741 57.9017 41.9312C57.9017 35.0209 54.0036 30.2811 47.0933 30.2811C40.2272 30.2811 36.3291 34.9766 36.3291 41.9312C36.3291 48.8415 40.4487 53.5813 47.0933 53.5813C52.0988 53.5813 56.0412 51.0563 57.193 46.7152C57.2373 46.5381 57.1044 46.4938 56.9715 46.4938H53.029C52.8962 46.4938 52.8076 46.5381 52.719 46.7152C51.7887 48.4871 50.2383 49.816 47.0933 49.816C43.1508 49.816 40.8031 46.8924 40.8031 43.6588C40.8031 43.5259 40.8917 43.4373 41.0246 43.4373H57.4587ZM53.2948 39.8935C53.2948 40.0264 53.2062 40.115 53.0733 40.115H41.0246C40.936 40.115 40.8031 40.0264 40.8031 39.8935C40.8031 37.8116 42.7965 34.0463 47.0933 34.0463C51.4787 34.0463 53.2948 37.3686 53.2948 39.8935Z" fill="black"/>
<path d="M82.3366 53.1383C82.4695 53.1383 82.5581 53.0497 82.5581 52.9168V22.1748C82.5581 22.0419 82.4695 21.9533 82.3366 21.9533H78.5714C78.4385 21.9533 78.3499 22.0419 78.3499 22.1748V32.7174C78.3499 32.8946 78.1284 33.0718 77.907 32.806C77.3754 32.1859 74.6733 30.2811 71.5725 30.2811C65.1051 30.2811 61.0298 35.0209 61.0298 41.9312C61.0298 48.8415 65.1051 53.5813 71.5725 53.5813C73.7873 53.5813 76.7109 52.2524 77.907 51.0563C78.0398 50.9234 78.2613 50.8792 78.3499 51.1449L78.7929 52.9168C78.8372 53.0497 78.8815 53.1383 79.0144 53.1383H82.3366ZM65.238 41.9312C65.238 37.3243 67.763 34.0463 72.0155 34.0463C76.0465 34.0463 78.3499 37.3243 78.3499 41.9312C78.3499 46.5381 76.0465 49.816 72.0155 49.816C67.763 49.816 65.238 46.5381 65.238 41.9312Z" fill="black"/>
<path d="M88.2593 52.9168C88.2593 53.0497 88.3479 53.1383 88.4808 53.1383H92.246C92.3789 53.1383 92.4675 53.0497 92.4675 52.9168V40.9566C92.4675 40.8238 92.5561 40.7352 92.689 40.7352H101.415C106.288 40.7352 110.452 36.7041 110.452 31.4328C110.452 26.1615 106.288 21.9533 101.415 21.9533H88.4808C88.3479 21.9533 88.2593 22.0419 88.2593 22.1748V52.9168ZM100.884 25.7185C103.675 25.7185 106.244 28.3763 106.244 31.4328C106.244 34.4893 103.675 36.9699 100.884 36.9699H92.689C92.5561 36.9699 92.4675 36.8813 92.4675 36.7484V25.94C92.4675 25.8071 92.5561 25.7185 92.689 25.7185H100.884Z" fill="black"/>
<path d="M133.39 43.4373C133.523 43.4373 133.567 43.3487 133.611 43.2158C133.7 42.8614 133.833 42.3741 133.833 41.9312C133.833 35.0209 129.935 30.2811 123.024 30.2811C116.158 30.2811 112.26 34.9766 112.26 41.9312C112.26 48.8415 116.38 53.5813 123.024 53.5813C128.03 53.5813 131.972 51.0563 133.124 46.7152C133.168 46.5381 133.035 46.4938 132.903 46.4938H128.96C128.827 46.4938 128.739 46.5381 128.65 46.7152C127.72 48.4871 126.169 49.816 123.024 49.816C119.082 49.816 116.734 46.8924 116.734 43.6588C116.734 43.5259 116.823 43.4373 116.956 43.4373H133.39ZM129.226 39.8935C129.226 40.0264 129.137 40.115 129.004 40.115H116.956C116.867 40.115 116.734 40.0264 116.734 39.8935C116.734 37.8116 118.728 34.0463 123.024 34.0463C127.41 34.0463 129.226 37.3686 129.226 39.8935Z" fill="black"/>
<path d="M150.073 34.0463C150.206 34.0463 150.294 33.9577 150.294 33.8248V30.5026C150.294 30.3697 150.206 30.2811 150.073 30.2811H147.814C145.599 30.2811 143.96 31.4771 142.454 32.9832C142.321 33.1161 142.055 33.2047 141.967 32.9389L141.524 30.9455C141.479 30.8127 141.435 30.7241 141.302 30.7241H137.98C137.847 30.7241 137.758 30.8127 137.758 30.9455V52.9168C137.758 53.0497 137.847 53.1383 137.98 53.1383H141.745C141.878 53.1383 141.967 53.0497 141.967 52.9168V40.7352C141.967 37.28 144.093 34.0463 147.814 34.0463H150.073Z" fill="black"/>
<path d="M167.314 22.1748C167.314 22.0419 167.225 21.9533 167.092 21.9533H164.124C160.005 21.8647 157.878 23.548 157.878 27.1803V30.5026C157.878 30.6355 157.79 30.7241 157.657 30.7241H153.715C153.582 30.7241 153.493 30.8127 153.493 30.9455V33.8248C153.493 33.9577 153.582 34.0463 153.715 34.0463H157.657C157.79 34.0463 157.878 34.1349 157.878 34.2678V52.9168C157.878 53.0497 157.967 53.1383 158.1 53.1383H161.865C161.998 53.1383 162.087 53.0497 162.087 52.9168V34.2678C162.087 34.1349 162.175 34.0463 162.308 34.0463H167.092C167.225 34.0463 167.314 33.9577 167.314 33.8248V30.9455C167.314 30.8127 167.225 30.7241 167.092 30.7241H162.308C162.175 30.7241 162.087 30.6355 162.087 30.5026V27.9334C162.087 26.5602 162.84 25.7185 164.169 25.7185H167.092C167.225 25.7185 167.314 25.6299 167.314 25.497V22.1748Z" fill="black"/>
<path fill-rule="evenodd" clip-rule="evenodd" d="M78.2848 0.748779H182.617V74.8609H78.2848V63.7722H82.5441V70.6016H178.357V5.0081H82.5441V11.7565H78.2848V0.748779Z" fill="#CCEBD4"/>
</svg>
