<?xml version="1.0" encoding="UTF-8" standalone="no"?>
<!DOCTYPE svg PUBLIC "-//W3C//DTD SVG 1.1//EN" "http://www.w3.org/Graphics/SVG/1.1/DTD/svg11.dtd">
<svg xmlns="http://www.w3.org/2000/svg" version="1.1" viewBox="0.00 0.00 183.00 75.00">
<path fill="#ffffff" d="
  M 78.03 0.00
  L 182.25 0.00
  L 182.25 73.74
  A 0.26 0.26 0.0 0 1 181.99 74.00
  L 78.24 74.00
  A 0.27 0.26 0.0 0 1 77.97 73.74
  L 77.97 63.26
  A 0.26 0.26 0.0 0 1 78.24 63.00
  L 81.96 63.01
  Q 82.16 63.01 82.16 63.21
  L 82.14 69.19
  Q 82.14 69.75 82.69 69.75
  L 177.75 69.75
  Q 178.00 69.75 178.00 69.50
  L 178.00 4.75
  Q 178.00 4.25 177.50 4.25
  L 82.70 4.25
  A 0.55 0.54 90.0 0 0 82.16 4.80
  L 82.16 10.54
  Q 82.16 11.00 81.71 11.00
  L 78.45 11.00
  A 0.47 0.47 0.0 0 1 77.98 10.53
  L 78.03 0.00
  Z"
/>
<path fill="#000000" d="
  M 4.20 52.50
  L 0.57 52.50
  A 0.30 0.30 0.0 0 1 0.27 52.20
  L 0.27 21.55
  A 0.30 0.30 0.0 0 1 0.57 21.25
  L 7.70 21.24
  A 0.30 0.30 0.0 0 1 7.98 21.45
  L 15.81 47.80
  A 0.30 0.30 0.0 0 0 16.39 47.80
  L 24.23 21.46
  A 0.30 0.30 0.0 0 1 24.51 21.25
  L 31.64 21.25
  A 0.30 0.30 0.0 0 1 31.94 21.55
  L 31.94 52.20
  A 0.30 0.30 0.0 0 1 31.64 52.50
  L 28.03 52.50
  A 0.30 0.30 0.0 0 1 27.73 52.20
  L 27.72 26.02
  A 0.30 0.30 0.0 0 0 27.13 25.93
  L 19.45 52.28
  A 0.30 0.30 0.0 0 1 19.16 52.50
  L 13.03 52.50
  A 0.30 0.30 0.0 0 1 12.74 52.28
  L 5.09 26.00
  A 0.30 0.30 0.0 0 0 4.50 26.08
  L 4.50 52.20
  A 0.30 0.30 0.0 0 1 4.20 52.50
  Z"
/>
<path fill="#000000" d="
  M 77.99 31.50
  L 77.99 21.75
  Q 77.99 21.24 78.50 21.24
  L 81.73 21.25
  Q 82.21 21.25 82.21 21.73
  L 82.21 52.02
  Q 82.21 52.50 81.73 52.50
  L 79.07 52.50
  Q 78.54 52.50 78.38 51.99
  L 78.00 50.73
  Q 77.80 50.07 77.25 50.48
  C 66.06 58.72 56.80 44.95 62.41 34.50
  C 65.48 28.76 72.35 28.17 77.46 31.77
  Q 77.99 32.15 77.99 31.50
  Z
  M 71.4819 49.1899
  A 8.01 6.67 89.7 0 0 78.1099 41.1451
  A 8.01 6.67 89.7 0 0 71.3981 33.1701
  A 8.01 6.67 89.7 0 0 64.7701 41.2149
  A 8.01 6.67 89.7 0 0 71.4819 49.1899
  Z"
/>
<path fill="#000000" d="
  M 92.07 40.70
  L 92.09 52.08
  Q 92.09 52.50 91.67 52.50
  L 88.20 52.50
  Q 87.90 52.50 87.90 52.20
  L 87.90 21.78
  Q 87.90 21.27 88.40 21.27
  Q 94.93 21.20 101.26 21.27
  C 110.62 21.36 113.44 35.06 104.80 39.02
  C 101.46 40.55 96.72 39.95 92.75 40.01
  Q 92.07 40.03 92.07 40.70
  Z
  M 92.07 25.44
  L 92.07 35.82
  A 0.45 0.45 0.0 0 0 92.52 36.27
  L 100.09 36.27
  A 5.72 5.52 -0.0 0 0 105.81 30.75
  L 105.81 30.51
  A 5.72 5.52 -0.0 0 0 100.09 24.99
  L 92.52 24.99
  A 0.45 0.45 0.0 0 0 92.07 25.44
  Z"
/>
<path fill="#000000" d="
  M 161.74 33.76
  L 161.73 52.01
  Q 161.73 52.50 161.24 52.50
  L 158.00 52.50
  Q 157.50 52.50 157.50 52.00
  L 157.50 33.75
  Q 157.50 33.25 157.00 33.25
  L 153.46 33.25
  A 0.35 0.35 0.0 0 1 153.11 32.90
  L 153.11 30.32
  Q 153.11 30.00 153.43 30.00
  L 156.98 30.00
  Q 157.44 30.00 157.47 29.53
  Q 157.57 27.96 157.56 26.50
  C 157.49 20.71 162.52 21.20 166.47 21.24
  A 0.50 0.50 0.0 0 1 166.96 21.73
  L 166.99 24.49
  Q 167.00 24.97 166.51 24.98
  L 163.26 25.04
  Q 161.80 25.07 161.77 26.53
  L 161.72 28.85
  Q 161.70 30.00 162.85 30.00
  L 166.49 30.00
  Q 166.99 30.00 166.98 30.49
  L 166.97 32.76
  Q 166.97 33.25 166.48 33.25
  L 162.24 33.25
  Q 161.74 33.25 161.74 33.76
  Z"
/>
<path fill="#000000" d="
  M 42.32 42.75
  Q 39.68 42.75 40.81 45.13
  L 41.00 45.52
  Q 42.28 48.22 45.21 48.80
  Q 49.92 49.73 52.31 46.14
  Q 52.57 45.75 53.05 45.75
  L 55.27 45.75
  Q 57.87 45.75 56.28 47.82
  Q 51.48 54.07 43.94 52.55
  C 32.96 50.34 33.09 30.98 44.98 29.70
  Q 56.01 28.51 57.74 41.05
  Q 57.98 42.75 56.26 42.75
  L 42.32 42.75
  Z
  M 40.63 39.25
  L 52.75 39.25
  A 0.14 0.14 0.0 0 0 52.89 39.11
  L 52.89 39.02
  A 6.04 5.71 -0.0 0 0 46.85 33.31
  L 46.53 33.31
  A 6.04 5.71 0.0 0 0 40.49 39.02
  L 40.49 39.11
  A 0.14 0.14 0.0 0 0 40.63 39.25
  Z"
/>
<path fill="#000000" d="
  M 118.30 42.75
  Q 115.58 42.75 116.77 45.20
  L 116.92 45.53
  Q 118.22 48.19 121.12 48.78
  Q 125.86 49.75 128.24 46.16
  Q 128.51 45.75 129.00 45.75
  L 132.23 45.75
  Q 132.85 45.75 132.65 46.34
  C 130.60 52.43 123.02 54.32 117.75 51.76
  C 112.47 49.20 111.09 43.21 112.34 37.78
  C 115.38 24.52 134.67 27.61 133.32 42.22
  A 0.58 0.58 0.0 0 1 132.74 42.75
  L 118.30 42.75
  Z
  M 116.60 39.27
  L 128.64 39.23
  A 0.17 0.17 0.0 0 0 128.81 39.06
  L 128.81 38.96
  A 6.01 5.67 -0.2 0 0 122.78 33.31
  L 122.42 33.31
  A 6.01 5.67 -0.2 0 0 116.43 39.00
  L 116.43 39.10
  A 0.17 0.17 0.0 0 0 116.60 39.27
  Z"
/>
<path fill="#000000" d="
  M 141.52 32.00
  A 0.39 0.39 0.0 0 0 142.20 32.19
  Q 145.17 28.87 149.76 29.59
  Q 149.94 29.62 149.94 29.80
  L 149.93 33.09
  Q 149.93 33.36 149.66 33.33
  C 142.98 32.50 141.58 36.38 141.58 42.23
  Q 141.59 47.20 141.59 51.95
  Q 141.59 52.49 141.05 52.49
  L 137.95 52.50
  A 0.55 0.55 0.0 0 1 137.39 51.95
  L 137.40 30.55
  Q 137.40 30.00 137.95 30.00
  L 140.68 30.00
  Q 141.11 30.00 141.20 30.43
  L 141.52 32.00
  Z"
/>
</svg>
